# xmcd
#
# Track frame offsets: 
#        150
#        13547
#        31683
#        44386
#        55519
#        69831
#        82192
#        99986
#        104991
#        115373
#        134432
#        147017
#
# Disc length: 2108 seconds
#
# Revision: 0
# Processed by: cddbd v1.5.2PL0 Copyright (c) Steve Scherf et al.
# Submitted via: ExactAudioCopy v1.0b1
#
DISCID=9d083a0c
DTITLE=Big Joe Williams and Short Stuff Macon - Hell Bound and Heaven Sent
DYEAR=2007
DGENRE=Blues
TTITLE0=Night Cap Blues
TTITLE1=My Jack Don't Drink Water No Maore
TTITLE2=Flour Dough Blues
TTITLE3=Hell Bound Blues
TTITLE4=Big Legged Women, Keep Your Dressess Down
TTITLE5=Short Stuff's Corrina
TTITLE6=Don't Leave Me Here
TTITLE7=You Rascal You
TTITLE8=Messing With That Thing
TTITLE9=Bumble Bee
TTITLE10=If You Can't Fly
TTITLE11=Rock Road Bad Treatin'
EXTD=
EXTT0=
EXTT1=
EXTT2=
EXTT3=
EXTT4=
EXTT5=
EXTT6=
EXTT7=
EXTT8=
EXTT9=
EXTT10=
EXTT11=
PLAYORDER=
